# xmcd
#
# Track frame offsets: 
#        183
#        10915
#        28530
#        40015
#        55170
#        64870
#        78315
#        94158
#        107993
#        120525
#
# Disc length: 1794 seconds
#
# Revision: 10
# Processed by: cddbd v1.5.2PL0 Copyright (c) Steve Scherf et al.
# Submitted via: ExactAudioCopyFreeDBPlugin 1.0
#
DISCID=7807000a
DTITLE=Mel McDaniel - Greatest Hits
DYEAR=1987
DGENRE=Country
TTITLE0=Louisiana Saturday Night
TTITLE1=Anger and Tears
TTITLE2=Stand Up
TTITLE3=Hello Daddy, Good Morning Darling
TTITLE4=Let It Roll (Let It Rock)
TTITLE5=Baby's Got Her Blue Jeans On
TTITLE6=Old Man River (I've Come To Talk Again)
TTITLE7=Love Is Everywhere
TTITLE8=Big Ole Brew
TTITLE9=Do You Want To Say Goodbye
EXTD=
EXTT0=
EXTT1=
EXTT2=
EXTT3=
EXTT4=
EXTT5=
EXTT6=
EXTT7=
EXTT8=
EXTT9=
PLAYORDER=
